<?xml version="1.0" encoding="UTF-8" standalone="no"?>
<!-- Created with Inkscape (http://www.inkscape.org/) -->

<svg
   width="234"
   height="60"
   viewBox="0 0 61.912502 15.875"
   version="1.1"
   id="svg5"
   inkscape:version="1.1.2 (0a00cf5339, 2022-02-04)"
   sodipodi:docname="234x60.svg"
   inkscape:export-filename="/home/pandas/source/sasakulab.com/assets/img/banner/468x120.png"
   inkscape:export-xdpi="192"
   inkscape:export-ydpi="192"
   xmlns:inkscape="http://www.inkscape.org/namespaces/inkscape"
   xmlns:sodipodi="http://sodipodi.sourceforge.net/DTD/sodipodi-0.dtd"
   xmlns:xlink="http://www.w3.org/1999/xlink"
   xmlns="http://www.w3.org/2000/svg"
   xmlns:svg="http://www.w3.org/2000/svg">
  <sodipodi:namedview
     id="namedview7"
     pagecolor="#ffffff"
     bordercolor="#666666"
     borderopacity="1.0"
     inkscape:pageshadow="2"
     inkscape:pageopacity="0.0"
     inkscape:pagecheckerboard="0"
     inkscape:document-units="px"
     showgrid="true"
     units="px"
     width="234px"
     inkscape:zoom="2.7865881"
     inkscape:cx="16.687073"
     inkscape:cy="18.481382"
     inkscape:window-width="1850"
     inkscape:window-height="1016"
     inkscape:window-x="0"
     inkscape:window-y="0"
     inkscape:window-maximized="1"
     inkscape:current-layer="layer2">
    <inkscape:grid
       type="xygrid"
       id="grid43231" />
  </sodipodi:namedview>
  <defs
     id="defs2">
    <linearGradient
       inkscape:collect="always"
       id="linearGradient32489">
      <stop
         style="stop-color:#333333;stop-opacity:1"
         offset="0"
         id="stop32485" />
      <stop
         style="stop-color:#808080;stop-opacity:0;"
         offset="1"
         id="stop32487" />
    </linearGradient>
    <linearGradient
       inkscape:collect="always"
       xlink:href="#linearGradient32489"
       id="linearGradient32495"
       x1="39.76049"
       y1="-8.4620295"
       x2="39.799786"
       y2="-13.189314"
       gradientUnits="userSpaceOnUse"
       gradientTransform="translate(-0.25827493,-0.48713184)" />
  </defs>
  <g
     inkscape:groupmode="layer"
     id="layer2"
     inkscape:label="Layer 2">
    <rect
       style="fill:#ffffff;fill-rule:evenodd;stroke-width:0.264583"
       id="rect40"
       width="62.177086"
       height="15.875"
       x="0"
       y="0" />
  </g>
  <g
     inkscape:label="Layer 1"
     inkscape:groupmode="layer"
     id="layer1">
    <path
       style="fill:#000000;stroke-width:0.064348"
       d="M 21.399079,14.490627 C 21.217241,14.310433 21.171508,14.1924 21.048692,13.586319 20.950958,13.104031 20.865318,12.845224 20.770731,12.74635 20.688105,12.65999 20.600189,12.431186 20.548508,12.168066 20.447084,11.651665 19.979009,10.064598 19.84151,9.7708652 19.788396,9.6574194 19.687266,9.4067713 19.616761,9.213875 19.546257,9.0209787 19.397299,8.6335911 19.285746,8.3530146 19.174193,8.0724381 19.039441,7.7214766 18.986298,7.5730994 18.858244,7.2155727 18.159661,5.8888525 17.878043,5.4683531 17.755028,5.2846717 17.578556,5.0838043 17.485884,5.0219812 17.137294,4.7894304 16.945947,4.5685077 16.945947,4.3985874 16.945947,4.2864407 16.876489,4.17074 16.742032,4.0589035 16.629874,3.9656201 16.3958,3.7679182 16.22186,3.6195665 15.686651,3.163094 15.294822,3.0289554 14.027415,2.8683234 13.017583,2.7403353 12.412863,2.7862707 11.361615,3.0708141 10.619949,3.2715623 9.7596717,3.5847443 9.6032809,3.7109306 c -0.056376,0.045494 -0.1381425,0.082715 -0.1816878,0.082715 -0.090843,0 -0.7864157,0.426211 -0.8843204,0.5418718 C 8.5013994,4.377897 8.2967261,4.5536525 8.0824438,4.7260853 7.8681613,4.8985182 7.5435475,5.1968635 7.3610798,5.389075 7.0260085,5.742041 6.0573294,6.9925739 5.9800715,7.171912 5.9570743,7.2252933 5.7758564,7.5128788 5.5773631,7.8109911 5.3788698,8.1091036 5.1961628,8.396058 5.1713487,8.4486661 5.1465391,8.501267 5.0382523,8.6877926 4.9307195,8.8631529 c -0.292087,0.4763308 -0.800446,1.5260311 -1.067854,2.2049931 -0.4051892,1.028792 -0.5841291,1.748003 -0.5937021,2.38626 -0.011165,0.749026 -0.00537,0.718846 -0.1467164,0.762883 -0.3535211,0.110187 -0.7217366,-0.370808 -0.7217366,-0.942792 0,-0.662423 1.0528,-3.4105413 1.6777644,-4.3794603 C 4.1576453,8.7722917 4.3120916,8.4996794 4.4216762,8.289247 4.5312534,8.0788146 4.7051922,7.7775138 4.8081937,7.6196892 4.911188,7.461865 5.0272786,7.2611252 5.0661592,7.1736 5.1050484,7.086075 5.2035621,6.928251 5.2851078,6.8228792 5.5113818,6.5304758 5.6628282,6.2168065 5.5777328,6.2168065 c -0.09383,0 -0.3653778,0.2860019 -0.6112516,0.6437759 C 4.8603259,7.0150506 4.678515,7.2535069 4.5624562,7.3904857 4.4463975,7.5274633 4.2154515,7.9005024 4.0492397,8.2194616 3.6107871,9.0608494 3.4701928,9.1747916 3.2137716,8.8965405 3.0578635,8.7273601 2.9859619,8.7869713 3.0293361,9.0494506 3.0585102,9.2260071 3.0393411,9.2787562 2.9243118,9.3392401 2.7068915,9.4535098 2.5098207,9.3940853 2.4028172,9.1819912 2.3299687,9.037599 2.296662,8.6310394 2.2670093,7.5240382 2.2451287,6.7072638 2.2530892,6.0245497 2.2849604,5.9832781 2.3164546,5.9425173 2.4405393,5.6125216 2.5607132,5.249953 2.8785858,4.2909181 3.386185,3.3392217 3.8241938,2.8810567 4.1124805,2.5795038 4.6162313,2.2906413 5.0018135,2.2057835 c 0.5913098,-0.130134 1.6239966,0.1362 2.160857,0.5572926 0.1637149,0.1284125 0.3927569,0.2908675 0.5089811,0.3610116 0.1292539,0.078003 0.2347899,0.2080245 0.2717492,0.3347789 0.033234,0.1139848 0.08413,0.2072439 0.1130862,0.2072439 0.028957,0 0.1635322,-0.074191 0.2990444,-0.1648693 1.0180635,-0.6812359 3.2989566,-1.3672896 4.5413906,-1.3659716 0.584211,6.376e-4 1.687215,0.1200951 2.122473,0.2299018 0.79294,0.2000428 1.056873,0.3539787 2.093882,1.2212298 0.262106,0.2192006 0.4997,0.3984392 0.527986,0.3983079 0.02829,-1.276e-4 0.148318,-0.05825 0.266741,-0.1291514 L 18.123318,3.7266439 17.989177,3.5134907 c -0.07378,-0.1172344 -0.13414,-0.3074693 -0.13414,-0.4227442 0,-0.2913952 0.352596,-0.6052163 1.078536,-0.9599301 l 0.577282,-0.2820758 h 0.909078 c 0.880815,0 0.922204,0.00611 1.331333,0.1965191 0.804492,0.3744109 1.327229,1.1200061 1.411301,2.0129786 0.06615,0.7026083 -0.274108,2.1938543 -0.704851,3.0891423 -0.102932,0.2139547 -0.187161,0.417098 -0.187161,0.4514277 0,0.034331 -0.06692,0.1241592 -0.148718,0.1996206 -0.131531,0.1213496 -0.177685,0.1293522 -0.399368,0.069233 -0.189555,-0.05139 -0.288267,-0.048187 -0.404982,0.013101 -0.239309,0.1257781 -0.502936,0.00968 -0.527221,-0.2321712 -0.0157,-0.1563972 0.04718,-0.2640481 0.339711,-0.5814906 C 21.327417,6.8528414 21.558961,6.6602855 21.64452,6.639197 21.850633,6.5883959 21.968368,6.3994992 22.167955,5.7993931 22.504398,4.7877991 22.54471,3.6587724 22.2591,3.2468562 22.094408,3.0093341 21.983679,2.9733903 21.895162,3.128719 c -0.03145,0.055186 -0.125556,0.1340969 -0.209135,0.1753604 -0.197174,0.09735 -0.242887,0.2344433 -0.07817,0.2344433 0.154893,0 0.247824,0.1020889 0.308287,0.3386661 0.03535,0.1383161 0.01189,0.2138402 -0.104313,0.3352667 -0.115681,0.120931 -0.132328,0.1740186 -0.07287,0.2324086 0.194746,0.191248 0.08394,0.3807138 -0.612769,1.0477086 -0.379407,0.3632273 -0.715441,0.6604134 -0.746742,0.6604134 -0.0313,0 -0.05691,0.043043 -0.05691,0.095651 0,0.1616459 0.08085,0.1091961 0.551941,-0.3580641 0.702151,-0.6964433 1.053341,-0.8113394 1.147012,-0.3752609 0.04578,0.2130959 0.03121,0.2374193 -0.322267,0.5380189 -0.203614,0.1731585 -0.608827,0.556053 -0.900473,0.8508764 -0.440928,0.4457316 -0.566594,0.5377256 -0.745896,0.5460269 -0.200692,0.0093 -0.21989,-0.00769 -0.277129,-0.2450863 -0.07594,-0.3149197 -0.06291,-0.2978765 -0.190635,-0.249748 -0.143449,0.054056 -0.134967,0.141715 0.05273,0.5449377 0.08769,0.1883663 0.245117,0.5720472 0.349861,0.8526237 0.104745,0.2805765 0.283071,0.7540494 0.396279,1.0521618 0.300537,0.7914058 0.507665,1.3683558 0.698234,1.9449068 0.09275,0.280576 0.222303,0.630866 0.287919,0.778423 0.06561,0.147556 0.102911,0.310238 0.08287,0.361511 -0.02004,0.05128 0.0064,0.160109 0.0586,0.241855 0.05227,0.08175 0.131284,0.306453 0.175595,0.49935 0.04431,0.192895 0.149872,0.520665 0.234577,0.728376 0.186239,0.456684 0.186043,0.451747 0.02414,0.610738 -0.181223,0.177967 -0.304971,0.159926 -0.546793,-0.07971 z M 3.2394193,7.5176089 C 3.0895115,7.3402266 2.9850195,7.4155311 2.9871683,7.699399 l 0.00203,0.2710112 0.1628013,-0.1817895 C 3.279992,7.6456991 3.2986784,7.5877537 3.2393917,7.5176089 Z M 5.9720848,5.8488978 c 0,-0.059736 0.4306211,-0.5565301 0.8928436,-1.0300445 C 7.1848861,4.49108 7.2863738,4.303785 7.1440248,4.303785 c -0.07237,0 -0.522598,0.4431993 -0.522598,0.5144466 0,0.02668 -0.1063873,0.1560975 -0.2364284,0.2875922 -0.2553062,0.2581719 -0.5427809,0.6486592 -0.5427809,0.7372774 0,0.030178 0.029218,0.054869 0.064932,0.054869 0.035714,0 0.064932,-0.022083 0.064932,-0.049072 z M 19.93924,4.7915604 c 0.493257,-0.4155633 0.75977,-0.6790777 0.686808,-0.6790777 -0.18373,0 -1.277539,0.8651605 -1.277539,1.0104831 0,0.1359665 0.107692,0.075552 0.590731,-0.3314054 z M 7.5750186,4.1013675 c 0.1892871,-0.1746309 0.1903021,-0.2439544 0.00363,-0.2439544 -0.1544478,0 -0.3393589,0.2171396 -0.2737227,0.3214311 0.056579,0.089901 0.1032261,0.076522 0.2701513,-0.077476 z M 6.0517382,3.3178014 C 6.2881492,3.3159502 6.3806773,3.2846061 6.4544944,3.1813962 6.545729,3.053834 6.5352164,3.0404501 6.2353848,2.9025409 5.9808211,2.7854518 5.8395496,2.7627368 5.4985174,2.784062 5.2664592,2.7985735 5.0302685,2.8482013 4.9736471,2.8943489 4.881644,2.9693274 4.893012,3.001634 5.0804838,3.1980711 5.2696651,3.3962979 5.312597,3.4130923 5.5175415,3.3690513 5.6425323,3.3421898 5.8829266,3.3191274 6.0517339,3.3178017 Z M 19.21864,3.1239752 c 0.140869,-0.1166791 0.62909,-0.3506078 0.731745,-0.3506078 0.04817,0 0.14429,-0.045103 0.213623,-0.1002263 0.119306,-0.094867 0.114333,-0.098278 -0.09311,-0.063769 -0.331438,0.055138 -0.952646,0.3477849 -1.12307,0.5290678 L 18.796564,3.2993474 18.9589,3.2520002 c 0.08928,-0.026041 0.206166,-0.083651 0.259736,-0.1280251 z m 1.948024,-0.4781425 c 0,-0.079018 -0.186431,-0.1286589 -0.229022,-0.060982 -0.05877,0.093388 0.02667,0.1873562 0.133705,0.1470265 0.05242,-0.019757 0.09532,-0.058476 0.09532,-0.086044 z m -8.70469,9.0646193 c -0.158777,-0.0999 -0.344347,-0.243386 -0.412382,-0.318837 -0.06803,-0.07546 -0.152628,-0.137185 -0.187989,-0.137185 -0.03535,0 -0.282424,0.10304 -0.549034,0.228965 -0.378724,0.178886 -0.532031,0.220252 -0.700941,0.189134 -0.238145,-0.04387 -0.548696,-0.354053 -0.548696,-0.548041 0,-0.152301 0.239955,-0.374586 0.453248,-0.419874 0.294918,-0.06261 0.325962,-0.08244 0.325962,-0.208104 0,-0.06833 -0.05984,-0.261347 -0.132981,-0.428913 -0.08086,-0.1852729 -0.125397,-0.4059989 -0.113637,-0.5632504 0.01808,-0.2416456 0.03345,-0.2599178 0.234627,-0.2788806 0.118407,-0.011106 0.254406,0.011534 0.302232,0.050578 0.05818,0.047403 0.277081,0.057315 0.661332,0.029903 0.696675,-0.049682 0.901711,0.013527 1.03136,0.3183171 0.0843,0.1981261 0.08166,0.2471971 -0.02674,0.4955069 -0.06617,0.151582 -0.168121,0.314578 -0.226571,0.362216 -0.179619,0.146391 -0.127659,0.358594 0.136562,0.557627 0.13356,0.100617 0.330795,0.211624 0.438306,0.246697 0.216615,0.07065 0.282169,0.259596 0.164798,0.474966 -0.107503,0.197255 -0.491743,0.174261 -0.849457,-0.05084 z M 7.6279048,9.7621143 C 7.1868959,9.5709464 7.0936197,9.2627836 7.3049455,8.6951431 7.3619454,8.5420449 7.4362729,8.3274959 7.4701089,8.2183695 7.5395789,7.9943611 8.6223912,6.9297966 8.9499788,6.7634382 9.492848,6.4877534 9.9967294,6.5348871 10.229051,6.8830848 10.363424,7.0844731 10.295259,7.8620698 10.111398,8.2254807 9.7742718,8.8917887 8.9791095,9.5247761 8.1799134,9.7630358 7.8317239,9.8668413 7.8696461,9.8668982 7.6279076,9.7621112 Z M 15.632544,9.7284961 C 15.067054,9.5100423 14.427728,8.8313317 14.330348,8.3460813 14.308468,8.2370489 14.199789,7.9532187 14.088847,7.715336 13.837993,7.1774702 13.791026,6.963565 13.90468,6.8765767 c 0.04772,-0.036525 0.24707,-0.1166263 0.442998,-0.1780073 0.384631,-0.1204967 0.648243,-0.1078164 1.448991,0.069704 0.390427,0.086555 0.47913,0.1360221 0.765376,0.426831 0.373072,0.3790162 0.838441,1.2338997 0.838441,1.5402128 0,0.1687446 -0.05428,0.2517997 -0.286899,0.4389889 -0.157793,0.1269742 -0.309809,0.2308661 -0.337811,0.2308661 -0.028,0 -0.13997,0.083116 -0.248809,0.1847086 -0.263655,0.2460873 -0.515274,0.2850822 -0.894423,0.1386083 z"
       id="path39" />
    <text
       xml:space="preserve"
       style="font-style:normal;font-weight:normal;font-size:4.93889px;line-height:1.25;font-family:sans-serif;fill:#000000;fill-opacity:1;stroke:none;stroke-width:0.155952"
       x="26.122215"
       y="9.1756344"
       id="text6961"><tspan
         sodipodi:role="line"
         id="tspan6959"
         style="font-style:normal;font-variant:normal;font-weight:normal;font-stretch:normal;font-size:4.93889px;font-family:Ubuntu;-inkscape-font-specification:Ubuntu;stroke-width:0.155952"
         x="26.122215"
         y="9.1756344">Sasakulab.com</tspan></text>
    <text
       xml:space="preserve"
       style="font-style:normal;font-weight:normal;font-size:1.55952px;line-height:1.25;font-family:sans-serif;fill:#4d4d4d;fill-opacity:1;stroke:none;stroke-width:0.038988"
       x="34.434032"
       y="14.127709"
       id="text6961-9"><tspan
         sodipodi:role="line"
         id="tspan6959-3"
         style="font-style:normal;font-variant:normal;font-weight:normal;font-stretch:normal;font-family:Ubuntu;-inkscape-font-specification:Ubuntu;stroke-width:0.038988;fill:#4d4d4d"
         x="34.434032"
         y="14.127709">(C)2022-2023 Sasakulab</tspan></text>
    <text
       xml:space="preserve"
       style="font-style:normal;font-weight:normal;font-size:4.61023px;line-height:1.25;font-family:sans-serif;fill:url(#linearGradient32495);fill-opacity:1;stroke:none;stroke-width:0.145574"
       x="24.371811"
       y="-10.124486"
       id="text31596"
       transform="scale(1.0712882,-0.93345563)"><tspan
         sodipodi:role="line"
         id="tspan31594"
         style="font-style:normal;font-variant:normal;font-weight:normal;font-stretch:normal;font-size:4.61023px;font-family:Ubuntu;-inkscape-font-specification:Ubuntu;fill:url(#linearGradient32495);fill-opacity:1;stroke-width:0.145574"
         x="24.371811"
         y="-10.124486">Sasakulab.com</tspan></text>
  </g>
</svg>
